# xmcd CD database file
#
# Track frame offsets:
#	150
#	19237
#	32085
#	47199
#	68208
#	83253
#	102207
#	116173
#	129474
#	140076
#	153860
#	178511
#
# Disc length: 2450 seconds
#
# Revision: 0
# Processed by: cddbd v1.5.2PL0 Copyright (c) Steve Scherf et al.
# Submitted via: CDex 1.51
#
DISCID=9b09900c
DTITLE=Chad Hallyburton - Milk and Honey
DYEAR=2009
DGENRE=Jazz
TTITLE0=Blessed Assurance
TTITLE1=I Love To Tell The Story
TTITLE2=Were You There?
TTITLE3=Blue Sunday
TTITLE4=He Leadeth Me - Holy, Holy, Holy! Lord God Almighty - Christ The Lord Is Risen Today
TTITLE5=Angel Band
TTITLE6=Sweet Hour Of Prayer - Softly And Tenderly
TTITLE7=The Old Rugged Cross
TTITLE8=What A Friend We Have In Jesus
TTITLE9=Amazing Grace
TTITLE10=In The Garden
TTITLE11=Come Thou Fount Of Every Blessing
EXTD=YEAR: 2009
EXTT0=
EXTT1=
EXTT2=
EXTT3=
EXTT4=
EXTT5=
EXTT6=
EXTT7=
EXTT8=
EXTT9=
EXTT10=
EXTT11=
PLAYORDER=
